PathFileType	4	(X/Y/Z)	66_2_94_p1_0-120.trc
DataRate	CameraRate	NumFrames	NumMarkers	Units	OrigDataRate	OrigDataStartFrame	OrigNumFrames
60.0	60.0	6	27	m	60.0	30	121
Frame#	Time	RHip			RKnee			RAnkle			RBigToe			RSmallToe			RHeel			LHip			LKnee			LAnkle			LBigToe			LSmallToe			LHeel			Neck			Head			Nose			RShoulder			RElbow			RWrist			RThumb			RIndex			RPinky			LShoulder			LElbow			LWrist			LThumb			LIndex			LPinky			
		X1	Y1	Z1	X2	Y2	Z2	X3	Y3	Z3	X4	Y4	Z4	X5	Y5	Z5	X6	Y6	Z6	X7	Y7	Z7	X8	Y8	Z8	X9	Y9	Z9	X10	Y10	Z10	X11	Y11	Z11	X12	Y12	Z12	X13	Y13	Z13	X14	Y14	Z14	X15	Y15	Z15	X16	Y16	Z16	X17	Y17	Z17	X18	Y18	Z18	X19	Y19	Z19	X20	Y20	Z20	X21	Y21	Z21	X22	Y22	Z22	X23	Y23	Z23	X24	Y24	Z24	X25	Y25	Z25	X26	Y26	Z26	X27	Y27	Z27	
30	0.5	0.503653910347959	0.8475573257370037	0.7462054389278527	0.49569053541558317	0.9445431335649963	1.1961323129557424	0.4899381900384255	1.154508848940242	1.6027641032836115	0.4916823162820326	0.9243681107524262	1.6572412998326806	0.5509730416023065	0.9835248033819772	1.6436491934332889	0.47085402034230434	1.2108357007937478	1.6526360318286308	0.3106823823553816	0.9211427238836717	0.7590132158611936	0.30775975433845565	1.0314590430102	1.203764726482908	0.29799815506586097	1.1632505842943976	1.5859411952367777	0.3187622022714412	0.9471061408349504	1.6414980094567777	0.2645465589259614	1.0111766351944482	1.643777374107555	0.30218162176536767	1.2182875382653784	1.6395554553319924	0.4236213943208524	0.7830446031931123	0.18011751709803045	0.4399077916367941	0.6717668731719224	-0.063490059735097	0.4128343720061587	0.5965276822320756	0.08071661174413744	0.5704142653777373	0.7430541071672467	0.27979508646987467	0.5904603205536565	0.7829224530044072	0.5549995071533873	0.46820366124730445	0.6890036839945956	0.7564121467730827	0.40517560533788494	0.728961887059645	0.835265799993074	0.40619513872549545	0.7643645986463766	0.8615733247954545	0.4214943545114527	0.7550666706528317	0.87216729404711	0.2911403060750941	0.773281806036847	0.27357560292873223	0.23355659708861906	0.8247541586739613	0.5312615178797142	0.33956803441594846	0.6941596282095377	0.7341619268421014	0.4311270257918917	0.7116507449746817	0.8071399431316816	0.4380832421168662	0.720509201206857	0.8417865520548553	0.3947640756556069	0.7220308514406806	0.8483727189928443
31	0.5166666666666667	0.49938491252293377	0.8344856908046552	0.744938657573039	0.49292357925605296	0.9630718610532767	1.2050558697764575	0.4895300123550909	1.1553848003243146	1.5986579128546456	0.49218889917496306	0.9254771908804668	1.6577502456665254	0.5511229855404478	0.9853532606720449	1.6442291578490251	0.4709424341799242	1.2114051975505797	1.6528764127536921	0.3100866114300263	0.9189045091601483	0.7549073875638591	0.3061079805446298	1.0298003571936334	1.2031538542198597	0.30278515006426204	1.1456964720463079	1.5801111394316472	0.31911570710617576	0.9474854207321594	1.6417844653844216	0.26477057064940096	1.0107762993470166	1.6435928838655947	0.30199421045184816	1.2185044079919054	1.6399534442321384	0.4236183378876752	0.783001955163148	0.18011726807448508	0.4399204649703031	0.6716391150590995	-0.06348706278153758	0.4128370132765169	0.5965265627474335	0.08072374297390134	0.5704131861638285	0.7430202367433951	0.2798125233673962	0.5874979970618778	0.7969761916700622	0.5556330921724213	0.46826404219794965	0.6857809786767255	0.7491939013282107	0.4051412730215008	0.7290165936434583	0.8350226146815003	0.4062576863306594	0.7643005503551125	0.8615234527783173	0.4209095680699526	0.7559341916295865	0.8762754554696243	0.29122992260143005	0.7732373781157789	0.2735767685979796	0.2285699501118401	0.8394585414499206	0.5350261952676205	0.33955243312031813	0.6941237895803071	0.7342040748696973	0.43085010073909885	0.7119917133994262	0.80696336734534	0.43767908653491916	0.7207863253015662	0.8416838307908093	0.3948413035385877	0.7225194807827416	0.8485124650550417
32	0.5333333333333333	0.4953132928019969	0.8335348577140118	0.7449204175183826	0.49747476821010767	0.9457439673024206	1.1964909949361053	0.48974774260683596	1.1541371889780536	1.6027389319987304	0.4926365206624548	0.9208603819174619	1.6514981117115313	0.5504311094902995	0.9830394321706518	1.6434265523460434	0.4752323749175603	1.2257287518815192	1.6581304408177535	0.3106811048431503	0.92126386498475	0.7591057002948373	0.3078262495187262	1.0311395919685808	1.2037270305409593	0.2980217164556464	1.1636035654450494	1.5861685534460306	0.31163545377483126	0.9469451191705602	1.6375068379115203	0.26442801758945755	1.0108122089349938	1.6435244227190202	0.3031522042887513	1.2168007455901166	1.6343966225618032	0.4236069789035091	0.7830197252911316	0.1801044695284292	0.4399490926214023	0.6714913694491873	-0.06346736557750403	0.41283738853744817	0.5964490869327777	0.08075804240587091	0.570443137630677	0.7430333214622912	0.2797986693236114	0.5904487281056955	0.7828426987002727	0.5549885480927815	0.4682857558842847	0.6892360445080139	0.7564957817394871	0.4052472502365426	0.7293615273998783	0.8352226647496064	0.40264328679821776	0.7788512955554743	0.8636073565277205	0.41772842733292337	0.7433167958681522	0.870370147689453	0.291240632629797	0.7730810061960592	0.27361490708382746	0.23306602340175728	0.8256602823640223	0.5344943295022093	0.3395174480857536	0.6939759237925641	0.7341376797014885	0.4306096974784058	0.7124182145473209	0.8041116686020592	0.43369167635862854	0.7196260237883996	0.8413674662902213	0.39486051835674457	0.7224205882612528	0.8484445661463657
33	0.55	0.4953733124835826	0.8331897803774821	0.7447436731845896	0.4974470568624178	0.9457102587843074	1.1964569901471007	0.48987823882166054	1.1567435676033726	1.5989065105452238	0.4912919731478632	0.9228806731244928	1.6532562837715803	0.5512408177263142	0.9859063234142236	1.6443691953467738	0.4759634593122244	1.2271596834187541	1.6585754902942687	0.31065292846321135	0.9211103893202055	0.7591141443722529	0.3078918775412618	1.0307264472526008	1.2035190159869982	0.2979630997678968	1.1635632517176835	1.5861102345927003	0.3151118966412955	0.9314500997782478	1.635452442643585	0.2644418237457293	1.0099966481226614	1.6430806457801106	0.29785839988001056	1.2378477417563554	1.6419968859188407	0.41994865014818716	0.7971512114475136	0.18236151429315034	0.4401098601754637	0.6709778362479912	-0.06328965481083727	0.4128080608141253	0.5965216554312424	0.08077866501281436	0.570392694123375	0.743062882965429	0.2798181799739777	0.5862375974105086	0.7704468740645743	0.5581868217925826	0.4682616763007244	0.6895346424686449	0.7565852091571346	0.40592050118057843	0.7314958161779758	0.8397559839662059	0.40274753519389683	0.7820364899849033	0.8717425330834192	0.4210498969634325	0.7562316208717257	0.8763496947678511	0.29099854247757095	0.7730602027119722	0.2735996150028583	0.2333776423659081	0.8278454325368166	0.5387945556991887	0.33983423469702184	0.6943101010288474	0.7344908313630168	0.43082480373278453	0.7123351629402775	0.8042930521780272	0.4338531080185538	0.7199900336699575	0.8415806127845898	0.39525456617800814	0.7234085025004277	0.8489443511917496
34	0.5666666666666667	0.49543085070637316	0.8333560775079105	0.7446579767718596	0.4965405361572648	0.9470617300193049	1.2010477639907582	0.48961272564595615	1.1538254673270951	1.6028686995415524	0.4931002130802166	0.9221961483879474	1.6521142268634117	0.5511495393382221	0.9832254074355129	1.64809039240285	0.4706261378707764	1.2102181105238687	1.6526310435526879	0.31067055243945746	0.9212077609949123	0.7590809581415103	0.30791247151242906	1.0308623011363072	1.2035909283511788	0.2979220572981118	1.1633293822375976	1.5859460691900549	0.3150954535983271	0.9313940526583456	1.6354263182900317	0.2643699942597613	1.0095732478272712	1.6428707716342767	0.2966103756408105	1.238189539445674	1.6467564793786962	0.41996416334196646	0.79702300800113	0.18238411083700953	0.43997472046210695	0.6690884788853854	-0.06690094979901932	0.4127333246340401	0.5963819838113602	0.08078255238663444	0.5703734447602737	0.7430440397984	0.2798686181196282	0.5906009493409308	0.7824026734050336	0.5586199053618922	0.4675988760650684	0.6868710742268912	0.752527710784703	0.40143438011124905	0.743594112803349	0.8375012279351968	0.402098139645423	0.7806176040230278	0.8675468508711852	0.42114417967039514	0.7556306981968938	0.8796705645866397	0.290881997146186	0.7727139452101064	0.2736414687314468	0.233333960421959	0.8278106230803007	0.5388115013421046	0.33971495772610527	0.6942207067519623	0.7343452342744204	0.4276448847611558	0.7111246092527148	0.804172319199904	0.43386576086033474	0.7199653209714738	0.8416471271856973	0.39476000081454315	0.7243756004844818	0.8525615517452115
35	0.5833333333333334	0.49486054691082637	0.8344854235847422	0.7490431692828644	0.4965437958979335	0.9474998675844324	1.2013592366783479	0.4896566293575143	1.1559755263860687	1.598795824547604	0.487812045449692	0.9190755899440322	1.6506853801331365	0.5508996054114275	0.9830031303451171	1.6479729733943012	0.47557237595506635	1.225403033081735	1.6579435470598034	0.31061848110137497	0.9213741214785308	0.7593652124743965	0.30782905710157915	1.031030000221206	1.2036470240977784	0.2979450227632666	1.1635433763839194	1.586135798101617	0.3117543307169392	0.9453388992797528	1.6367958419717354	0.26044988894919185	1.008136051583888	1.642157606555268	0.29898544541579364	1.2404925085861014	1.647544447879202	0.4199310124076926	0.7971898228151009	0.18237923683152835	0.4399825014173073	0.6689539881540179	-0.06684843086895748	0.4127092966476982	0.5963214553910099	0.08091104833414754	0.570382596753043	0.7430257698029138	0.27986182138679677	0.5904548718774273	0.7827749048803784	0.5550740926433125	0.4682039100538003	0.6895339114312189	0.7565632745383281	0.40139318540848573	0.7438991966901155	0.8375020830410552	0.40223131104750354	0.7812170198530229	0.8676623164707016	0.4211642082320343	0.7557522158858321	0.8797547645425107	0.29080416591843816	0.7726739502940172	0.273710891460365	0.23333394707509666	0.8280216563911904	0.5389114601213167	0.33978639125065685	0.6943337458649288	0.7345515674109023	0.4274794119678204	0.7109461949537254	0.8040386173555559	0.4328591219359894	0.7212263065627033	0.8455213324640141	0.39851329965245436	0.7386829454095923	0.8579169063444646
